<svg width="148" height="65" viewBox="0 0 148 65" fill="none" xmlns="http://www.w3.org/2000/svg">
<circle cx="123" cy="36" r="5" fill="#DC0D0D"/>
<circle cx="77" cy="35" r="5" fill="#DC0D0D"/>
<path d="M57 13C57 15.7614 54.7614 18 52 18C49.2386 18 47 15.7614 47 13C47 10.2386 49.2386 8 52 8C54.7614 8 57 10.2386 57 13Z" fill="#DC0D0D"/>
<path d="M1.72156 5.31469L22.2061 26.9169" stroke="#DC0D0D" stroke-width="3"/>
<path d="M1.72156 5.31469L22.2061 26.9169" stroke="#DC0D0D" stroke-width="3"/>
<path d="M20.6619 27.641L27.2033 19.5617" stroke="#DC0D0D" stroke-width="3"/>
<path d="M20.6619 27.641L27.2033 19.5617" stroke="#DC0D0D" stroke-width="3"/>
<path d="M25.2919 19.7101L36 31" stroke="#DC0D0D" stroke-width="3"/>
<path d="M25.2919 19.7101L36 31" stroke="#DC0D0D" stroke-width="3"/>
<path d="M34.3064 31.4392L49.4803 14.0902" stroke="#DC0D0D" stroke-width="3"/>
<path d="M34.3064 31.4392L49.4803 14.0902" stroke="#DC0D0D" stroke-width="3"/>
<path d="M54.7262 13.8777L73 34" stroke="#DC0D0D" stroke-width="3"/>
<path d="M54.7262 13.8777L73 34" stroke="#DC0D0D" stroke-width="3"/>
<path d="M78.2395 34.1978L88.5 22.5" stroke="#DC0D0D" stroke-width="3"/>
<path d="M78.2395 34.1978L88.5 22.5" stroke="#DC0D0D" stroke-width="3"/>
<path d="M86.6746 22.6985L110.694 48.7137" stroke="#DC0D0D" stroke-width="3"/>
<path d="M86.6746 22.6985L110.694 48.7137" stroke="#DC0D0D" stroke-width="3"/>
<path d="M109 48.5L120 37" stroke="#DC0D0D" stroke-width="3"/>
<path d="M109 48.5L120 37" stroke="#DC0D0D" stroke-width="3"/>
<path d="M127 37.293L136.605 48.7266L146.209 60.1602" stroke="#DC0D0D" stroke-width="3"/>
<path d="M127 37.293L136.605 48.7266L146.209 60.1602" stroke="#DC0D0D" stroke-width="3"/>
</svg>
