<svg width="100" height="42" viewBox="0 0 100 42" fill="none" xmlns="http://www.w3.org/2000/svg">
<path d="M0.274101 0.946899L0 1.221L13.8991 15.1199L18.2602 10.7587L25.9164 18.4151L35.3172 9.01433L51.3083 25.0054L58.5769 17.7366L74.471 33.6309L83.3872 24.7146L99.7259 41.0531L100 40.779L83.3872 24.1664L74.471 33.0827L58.5769 17.1886L51.3083 24.4572L35.3172 8.46613L25.9164 17.8669L18.2602 10.2105L13.8991 14.5719L0.274101 0.946899Z" fill="#F04040"/>
<path d="M35.9959 11.3569C37.2805 11.3569 38.3219 10.3155 38.3219 9.03092C38.3219 7.74633 37.2805 6.70496 35.9959 6.70496C34.7113 6.70496 33.6699 7.74633 33.6699 9.03092C33.6699 10.3155 34.7113 11.3569 35.9959 11.3569Z" fill="#F04040"/>
<path d="M50.9207 26.6695C52.2053 26.6695 53.2467 25.6281 53.2467 24.3435C53.2467 23.059 52.2053 22.0176 50.9207 22.0176C49.6361 22.0176 48.5947 23.059 48.5947 24.3435C48.5947 25.6281 49.6361 26.6695 50.9207 26.6695Z" fill="#F04040"/>
<path d="M83.2898 26.6695C84.5744 26.6695 85.6158 25.6281 85.6158 24.3435C85.6158 23.059 84.5744 22.0176 83.2898 22.0176C82.0052 22.0176 80.9639 23.059 80.9639 24.3435C80.9639 25.6281 82.0052 26.6695 83.2898 26.6695Z" fill="#F04040"/>
</svg>
