<svg width="101" height="42" viewBox="0 0 101 42" fill="none" xmlns="http://www.w3.org/2000/svg">
<path d="M3.56077 38.8572H3.12988V40.1498H3.56077V38.8572Z" fill="#46C672"/>
<path d="M50.7434 38.8572H50.3125V40.1498H50.7434V38.8572Z" fill="#46C672"/>
<path d="M74.5432 13.5692H74.1123V14.8619H74.5432V13.5692Z" fill="#46C672"/>
<path d="M98.1057 3.22791H97.6748V4.52057H98.1057V3.22791Z" fill="#46C672"/>
<path d="M27.26 21.5406H26.8291V22.8333H27.26V21.5406Z" fill="#46C672"/>
<path d="M50.7237 39.4572L27.0066 21.6928L3.6135 39.2144L3.07812 38.4998L27.0066 20.577L50.6108 38.257L74.067 12.5881L74.1612 12.55L97.8218 3.01685L98.1556 3.84523L74.589 13.3403L50.7237 39.4572Z" fill="#46C672"/>
<path d="M3.34556 41.5356C4.82489 41.5356 6.02413 40.3364 6.02413 38.857C6.02413 37.3777 4.82489 36.1785 3.34556 36.1785C1.86623 36.1785 0.666992 37.3777 0.666992 38.857C0.666992 40.3364 1.86623 41.5356 3.34556 41.5356Z" fill="#46C672"/>
<path d="M27.0067 24.125C28.486 24.125 29.6853 22.9257 29.6853 21.4464C29.6853 19.9671 28.486 18.7678 27.0067 18.7678C25.5274 18.7678 24.3281 19.9671 24.3281 21.4464C24.3281 22.9257 25.5274 24.125 27.0067 24.125Z" fill="#46C672"/>
<path d="M50.6668 41.5356C52.1462 41.5356 53.3454 40.3364 53.3454 38.857C53.3454 37.3777 52.1462 36.1785 50.6668 36.1785C49.1875 36.1785 47.9883 37.3777 47.9883 38.857C47.9883 40.3364 49.1875 41.5356 50.6668 41.5356Z" fill="#46C672"/>
<path d="M74.328 15.6428C75.8073 15.6428 77.0066 14.4436 77.0066 12.9642C77.0066 11.4849 75.8073 10.2856 74.328 10.2856C72.8487 10.2856 71.6494 11.4849 71.6494 12.9642C71.6494 14.4436 72.8487 15.6428 74.328 15.6428Z" fill="#46C672"/>
<path d="M97.9881 5.82138C99.4675 5.82138 100.667 4.62214 100.667 3.14281C100.667 1.66347 99.4675 0.464233 97.9881 0.464233C96.5088 0.464233 95.3096 1.66347 95.3096 3.14281C95.3096 4.62214 96.5088 5.82138 97.9881 5.82138Z" fill="#46C672"/>
</svg>
