<svg width="131" height="55" viewBox="0 0 131 55" fill="none" xmlns="http://www.w3.org/2000/svg">
<path d="M10 38C10 40.7614 7.76142 43 5 43C2.23858 43 0 40.7614 0 38C0 35.2386 2.23858 33 5 33C7.76142 33 10 35.2386 10 38Z" fill="#46C672"/>
<path d="M39 22C39 24.7614 36.7614 27 34 27C31.2386 27 29 24.7614 29 22C29 19.2386 31.2386 17 34 17C36.7614 17 39 19.2386 39 22Z" fill="#46C672"/>
<circle cx="62" cy="39" r="5" fill="#46C672"/>
<circle cx="95" cy="13" r="5" fill="#46C672"/>
<circle cx="126" cy="5" r="5" fill="#46C672"/>
<path d="M7.99414 35.954L31.8347 21.8526M37 21.8526L59.5 38" stroke="#46C672" stroke-width="4"/>
<path d="M97.3066 12.0713L122.5 5.5" stroke="#46C672" stroke-width="4"/>
<path d="M64 38.5L93.473 13.5792" stroke="#46C672" stroke-width="4"/>
</svg>
