<svg width="112" height="16" viewBox="0 0 112 16" fill="none" xmlns="http://www.w3.org/2000/svg">
<path d="M52.5 15.5C56.6421 15.5 60 12.1421 60 8C60 3.85787 56.6421 0.5 52.5 0.5C48.3579 0.5 45 3.85787 45 8C45 12.1421 48.3579 15.5 52.5 15.5Z" fill="#FFD609"/>
<path d="M109.055 9.98334H3.17865C2.87841 9.98397 2.581 9.92538 2.30344 9.81092C2.02587 9.69646 1.77359 9.52837 1.56107 9.31629C1.34854 9.10421 1.17995 8.85231 1.06491 8.57499C0.949868 8.29766 0.890625 8.00035 0.890625 7.70011C0.890625 7.39987 0.949868 7.10259 1.06491 6.82526C1.17995 6.54793 1.34854 6.29601 1.56107 6.08393C1.77359 5.87185 2.02587 5.70376 2.30344 5.5893C2.581 5.47484 2.87841 5.41625 3.17865 5.41688H109.055C109.66 5.41814 110.24 5.65926 110.667 6.08732C111.094 6.51537 111.334 7.09538 111.334 7.70011C111.334 8.30483 111.094 8.88488 110.667 9.31293C110.24 9.74098 109.66 9.98208 109.055 9.98334Z" fill="#FFD609"/>
</svg>
